# xmcd CD database file
#
# Track frame offsets:
#	150
#	16105
#	27873
#	34707
#	52341
#	65567
#	77267
#	90284
#	103358
#	114782
#	128486
#	141784
#	155742
#	170399
#	182407
#	200611
#	261978
#
# Disc length: 3733 seconds
#
# Revision: 0
# Processed by: cddbd v1.5.2PL0 Copyright (c) Steve Scherf et al.
# Submitted via: CDex 1.70beta2
#
DISCID=d90e9311
DTITLE=Various Artist - Sous les pont de Paris
DYEAR=1900
DGENRE=Jazz
TTITLE0=Barney Wilen - Ménilmontant
TTITLE1=Henri Crolla - Alembert's
TTITLE2=Gus Viseur - Paris je t'aime
TTITLE3=Le Jazz Group de Paris - Parisian Thoroughfare
TTITLE4=Hubert Rostaing - Champs-Élysées Club
TTITLE5=Bill Coleman - Jumpin' at Pleyel
TTITLE6=Michel Legrand - Sous les pont de Paris
TTITLE7=Blossom Dearie - April i nParis
TTITLE8=Mary Lou Williams - I Made You Love Paris
TTITLE9=Sammy Price - Montparnasse
TTITLE10=Howard McGhee - Étoile
TTITLE11=Django Reinhard - Nuits de Saint-Germain-des-Prés
TTITLE12=René Thomas - Relaxin' at the Grand Balcon
TTITLE13=Michel Legrand - Moulin Rouge
TTITLE14=Charlie Singleton - Blues à la Schola
TTITLE15=Joe Newman - Blues on the Champs-Élysées
TTITLE16=Memphis Slim and Willie Dixon - Pigalle Love
EXTD=
EXTT0=
EXTT1=
EXTT2=
EXTT3=
EXTT4=
EXTT5=
EXTT6=
EXTT7=
EXTT8=
EXTT9=
EXTT10=
EXTT11=
EXTT12=
EXTT13=
EXTT14=
EXTT15=
EXTT16=
PLAYORDER=
